{"title":"Arrow.S04E17.720p.HDTV.X264-DIMENSION","uid":14118073,"size":1097626903,"categoryP":"video","categoryS":"hd___tv_shows","magnet":"?xt=urn:btih:95dc94df409eede79237646b06fb6f46da48fa9c&amp;dn=Arrow.S04E17.720p.HDTV.X264-DIMENSION&amp;tr=udp%3A%2F%2Ftracker.leechers-paradise.org%3A6969&amp;tr=udp%3A%2F%2Fzer0day.ch%3A1337&amp;tr=udp%3A%2F%2Fopen.demonii.com%3A1337&amp;tr=udp%3A%2F%2Ftracker.coppersurfer.tk%3A6969&amp;tr=udp%3A%2F%2Fexodus.desync.com%3A6969","seeders":14,"leechers":3,"uploader":"imPROvise","files":3,"time":1459449040,"description":"Video\r\nID : 1\r\nFormat : AVC\r\nFormat/Info : Advanced Video Codec\r\nFormat profile :   \r\nFormat settings, CABAC : Yes\r\nFormat settings, ReFrames : 8 frames\r\nCodec ID : V_MPEG4/ISO/AVC\r\nDuration : 42mn 15s\r\nBit rate : 3 010 Kbps\r\nWidth : 1 280 pixels\r\nHeight : 720 pixels\r\nDisplay aspect ratio : 16:9\r\nFrame rate mode : Constant\r\nFrame rate : 23.976 (24000/1001) fps\r\nColor space : YUV\r\nChroma subsampling : 4:2:0\r\nBit depth : 8 bits\r\nScan type : Progressive\r\nBits/(Pixel*Frame) : 0.136\r\nStream size : 910 MiB (87%)\r\nWriting library : x264 core 148 r2665 a01e339\r\nEncoding settings : cabac=1 / ref=8 / deblock=1:-2:-2 / analyse=0x3:0x113 / me=umh / subme=9 / psy=1 / psy_rd=1.00:0.00 / mixed_ref=1 / me_range=24 / chroma_me=1 / trellis=1 / 8x8dct=1 / cqm=0 / deadzone=21,11 / fast_pskip=0 / chroma_qp_offset=-2 / threads=18 / lookahead_threads=2 / sliced_threads=0 / nr=0 / decimate=1 / interlaced=0 / bluray_compat=0 / constrained_intra=0 / bframes=5 / b_pyramid=2 / b_adapt=2 / b_bias=0 / direct=3 / weightb=1 / open_gop=0 / weightp=2 / keyint=250 / keyint_min=23 / scenecut=40 / intra_refresh=0 / rc_lookahead=50 / rc=crf / mbtree=1 / crf=18.0 / qcomp=0.60 / qpmin=0 / qpmax=69 / qpstep=4 / ip_ratio=1.40 / aq=1:1.00\r\nLanguage : English\r\nDefault : No\r\nForced : No\r\n\r\nAudio\r\nID : 2\r\nFormat : AC-3\r\nFormat/Info : Audio Coding 3\r\nMode extension : CM (complete main)\r\nFormat settings, Endianness : Big\r\nCodec ID : A_AC3\r\nDuration : 42mn 15s\r\nBit rate mode : Constant\r\nBit rate : 384 Kbps\r\nChannel(s) : 6 channels\r\nChannel positions : Front: L C R, Side: L R, LFE\r\nSampling rate : 48.0 KHz\r\nFrame rate : 31.250 fps (1536 spf)\r\nCompression mode : Lossy\r\nDelay relative to video : 10ms\r\nStream size : 116 MiB (11%)\r\nDefault : Yes\r\nForced : No","torrent":{"xt":"urn:btih:95dc94df409eede79237646b06fb6f46da48fa9c","amp;dn":"Arrow.S04E17.720p.HDTV.X264-DIMENSION","amp;tr":["udp%3A%2F%2Ftracker.leechers-paradise.org%3A6969","udp%3A%2F%2Fzer0day.ch%3A1337","udp%3A%2F%2Fopen.demonii.com%3A1337","udp%3A%2F%2Ftracker.coppersurfer.tk%3A6969","udp%3A%2F%2Fexodus.desync.com%3A6969"],"infoHash":"95dc94df409eede79237646b06fb6f46da48fa9c","infoHashBuffer":{"type":"Buffer","data":[149,220,148,223,64,158,237,231,146,55,100,107,6,251,111,70,218,72,250,156]},"announce":[],"urlList":[]}}